<svg width="17" height="16" viewBox="0 0 17 16" fill="none" xmlns="http://www.w3.org/2000/svg">
<path fill-rule="evenodd" clip-rule="evenodd" d="M6.82458 6.00008C6.82458 5.2637 7.42154 4.66675 8.15792 4.66675C8.8943 4.66675 9.49125 5.2637 9.49125 6.00008C9.49125 6.73646 8.8943 7.33342 8.15792 7.33342C7.42154 7.33342 6.82458 6.73646 6.82458 6.00008Z" fill="black"/>
<path fill-rule="evenodd" clip-rule="evenodd" d="M11.4913 6.00008C11.4913 5.2637 12.0883 4.66675 12.8247 4.66675C13.561 4.66675 14.158 5.2637 14.158 6.00008C14.158 6.73646 13.561 7.33342 12.8247 7.33342C12.0883 7.33342 11.4913 6.73646 11.4913 6.00008Z" fill="black"/>
<path fill-rule="evenodd" clip-rule="evenodd" d="M2.15796 6.00008C2.15796 5.2637 2.75491 4.66675 3.49129 4.66675C4.22767 4.66675 4.82463 5.2637 4.82463 6.00008C4.82463 6.73646 4.22767 7.33342 3.49129 7.33342C2.75491 7.33342 2.15796 6.73646 2.15796 6.00008Z" fill="black"/>
<path fill-rule="evenodd" clip-rule="evenodd" d="M6.82458 10.0001C6.82458 9.2637 7.42154 8.66675 8.15792 8.66675C8.8943 8.66675 9.49125 9.2637 9.49125 10.0001C9.49125 10.7365 8.8943 11.3334 8.15792 11.3334C7.42154 11.3334 6.82458 10.7365 6.82458 10.0001Z" fill="black"/>
<path fill-rule="evenodd" clip-rule="evenodd" d="M11.4913 10.0001C11.4913 9.2637 12.0883 8.66675 12.8247 8.66675C13.561 8.66675 14.158 9.2637 14.158 10.0001C14.158 10.7365 13.561 11.3334 12.8247 11.3334C12.0883 11.3334 11.4913 10.7365 11.4913 10.0001Z" fill="black"/>
<path fill-rule="evenodd" clip-rule="evenodd" d="M2.15796 10.0001C2.15796 9.2637 2.75491 8.66675 3.49129 8.66675C4.22767 8.66675 4.82463 9.2637 4.82463 10.0001C4.82463 10.7365 4.22767 11.3334 3.49129 11.3334C2.75491 11.3334 2.15796 10.7365 2.15796 10.0001Z" fill="black"/>
</svg>
